HIERARCHY
ROOT Hips
{
	OFFSET	0	0	0
	CHANNELS 6  Xposition Yposition Zposition Xrotation Yrotation Zrotation
	JOINT Spine
	{
		OFFSET	0	6.96085	1.39713
		CHANNELS 3  Xrotation Yrotation Zrotation
		JOINT Spine1
		{
			OFFSET	0	11.9146	-2.1276
			CHANNELS 3  Xrotation Yrotation Zrotation
			JOINT Spine2
			{
				OFFSET	0	9.03168	0.96806
				CHANNELS 3  Xrotation Yrotation Zrotation
				JOINT Spine3
				{
					OFFSET	0	10.8082	3.21268
					CHANNELS 3  Xrotation Yrotation Zrotation
					JOINT Spine4
					{
						OFFSET	0	15.9996	-1.63826
						CHANNELS 3  Xrotation Yrotation Zrotation
						JOINT Neck
						{
							OFFSET	0	7.6381	-5.35092
							CHANNELS 3  Xrotation Yrotation Zrotation
							JOINT Head
							{
								OFFSET	0	9.16998	-2.74461
								CHANNELS 3  Xrotation Yrotation Zrotation
								End Site
								{
									OFFSET	0	19.1272	-0.925508
								}
							}
						}
					}
					JOINT LeftShoulder
					{
						OFFSET	-4.59563	19.4463	-9.16997
						CHANNELS 3  Xrotation Yrotation Zrotation
						JOINT LeftArm
						{
							OFFSET	-10.0457	-2.74461	3.52121
							CHANNELS 3  Xrotation Yrotation Zrotation
							JOINT LeftForeArm
							{
								OFFSET	-31.2362	-1.42567	2.22961
								CHANNELS 3  Xrotation Yrotation Zrotation
								JOINT LeftHand
								{
									OFFSET	-26.6039	-1.83848	1.89896
									CHANNELS 3  Xrotation Yrotation Zrotation
									End Site
									{
										OFFSET	-9.70909	-0.670953	0.692979
									}
								}
							}
						}
					}
					JOINT RightShoulder
					{
						OFFSET	4.59563	19.4463	-9.16997
						CHANNELS 3  Xrotation Yrotation Zrotation
						JOINT RightArm
						{
							OFFSET	10.0457	-2.74461	3.52121
							CHANNELS 3  Xrotation Yrotation Zrotation
							JOINT RightForeArm
							{
								OFFSET	31.2362	-1.42567	2.22961
								CHANNELS 3  Xrotation Yrotation Zrotation
								JOINT RightHand
								{
									OFFSET	26.6039	-1.83848	1.89896
									CHANNELS 3  Xrotation Yrotation Zrotation
									End Site
									{
										OFFSET	9.70909	-0.670953	0.692979
									}
								}
							}
						}
					}
				}
			}
		}
	}
	JOINT LeftUpLeg
	{
		OFFSET	-9.47252	-3.48043	-0.698563
		CHANNELS 3  Xrotation Yrotation Zrotation
		JOINT LeftLeg
		{
			OFFSET	-2.10259	-41.1994	-0.644037
			CHANNELS 3  Xrotation Yrotation Zrotation
			JOINT LeftFoot
			{
				OFFSET	-2.05598	-37.8983	3.25925
				CHANNELS 3  Xrotation Yrotation Zrotation
				JOINT LeftToeBase
				{
					OFFSET	0	-4.64446	-12.3357
					CHANNELS 3  Xrotation Yrotation Zrotation
					End Site
					{
						OFFSET	0	-1.85779	-7.43114
					}
				}
			}
		}
	}
	JOINT RightUpLeg
	{
		OFFSET	9.47252	-3.48043	-0.698563
		CHANNELS 3  Xrotation Yrotation Zrotation
		JOINT RightLeg
		{
			OFFSET	2.10259	-41.1994	-0.644037
			CHANNELS 3  Xrotation Yrotation Zrotation
			JOINT RightFoot
			{
				OFFSET	2.05598	-37.8983	3.25925
				CHANNELS 3  Xrotation Yrotation Zrotation
				JOINT RightToeBase
				{
					OFFSET	0	-4.64446	-12.3357
					CHANNELS 3  Xrotation Yrotation Zrotation
					End Site
					{
						OFFSET	0	-1.85779	-7.43114
					}
				}
			}
		}
	}
}
MOTION
Frames: 16
Frame Time: 0.020408
 0 -9.18316 2.93911 -0 0 -0 -0 0 -0 -0 0 -0 -0 0 -0 -0 0 -0 -0 0 -0 -0 0 -0 -0 0 -0 -0 0 -0 -0 0 -0 -0 0 -0 -0 0 -0 -0 0 -0 -0 0 -0 -0 0 -0 -0 0 -0 -0 0 -0 -0 0 -0 -0 0 -0 -0 0 -0 -0 0 -0 -0 0 -0 -0 0 -0 -0 0 -0
 70.0728 50.8977 -107.873 54.4563 -104.168 47.5968 180 179.998 -179.356 160.908 179.997 -178.927 160.395 179.99 -178.927 165.735 179.998 -179.356 177.222 -179.99 -179.786 9.54628 12.7801 9.96144 3.08467 6.20881 3.64159 1.44692 -28.6884 3.14316 12.6891 -47.7668 20.124 178.08 -163.753 177.679 -0 -45.4106 39.8531 1.5206 28.727 -3.30329 175.665 135.407 171.802 168.695 157.854 -173.851 -0 -12.8678 -45.7025 81.1624 -8.45914 -33.4669 107.775 179.539 179.649 161.55 -179.988 -168.501 16.0396 0 0 80.5077 20.4431 45.877 93.8141 -171.112 -179.563 162.364 -179.959 168.53 11.8922 0 0
 70.0012 49.934 -107.576 54.4223 -104.033 47.2289 180 179.996 -179.257 160.372 179.991 -178.761 159.8 179.974 -178.761 165.199 179.996 -179.257 177.463 -179.989 -179.752 10.7595 12.9824 9.67147 3.44523 6.25499 3.59712 1.48435 -28.5629 3.22469 17.4444 -48.8078 22.1457 177.761 -167.491 177.816 -0 -44.106 38.3136 1.49734 28.6556 -3.25283 178.42 132.85 170.585 167.451 162.446 -174.402 -0 -12.9367 -41.7399 81.5594 -9.14533 -33.5622 106.855 179.387 179.659 161.469 -179.959 -168.502 16.0093 0 0 80.521 21.5456 45.8198 94.0698 -169.93 -179.298 162.964 -179.962 168.594 11.8913 0 0
 69.9674 49.373 -107.791 54.302 -103.976 46.9061 180 180 -179.164 159.723 179.999 -178.607 159.114 179.997 -178.607 164.655 180 -179.164 177.504 -179.988 -179.722 11.4684 13.7434 9.8178 3.67027 6.79342 3.70458 1.47972 -28.4795 3.21471 21.8836 -49.3203 23.859 177.659 -170.549 177.985 -0 -42.9119 36.6648 1.21248 28.3395 -2.63391 0.365423 48.3996 -9.92739 166.372 165.606 -174.905 -0 -12.7973 -37.8003 82.0348 -9.91523 -33.0527 105.6 179.263 179.722 161.382 -179.957 -168.5 15.9801 0 0 80.5699 22.3949 45.9212 92.9976 -168.802 -179.373 163.227 179.989 168.632 11.8908 0 0
 70.1531 48.9007 -107.576 52.5543 -103.917 44.9559 180 179.99 -179.054 159.174 179.98 -178.424 158.445 179.94 -178.424 163.933 179.99 -179.054 178.153 -179.99 -179.685 13.9016 14.939 9.32008 4.39629 7.85792 3.69876 1.5394 -28.1797 3.34478 26.0269 -49.404 25.2098 177.769 -173.055 178.124 -0 -41.582 34.8486 0.959088 28.7256 -2.08296 1.75146 49.2099 -10.5956 165.662 167.881 -175.236 -0 -12.3461 -34.0298 82.1166 -10.2368 -33.7267 103.798 179.103 -179.896 161.495 179.981 -168.499 15.9595 0 0 80.7065 23.432 45.4171 91.6667 -168.741 -179.565 163.487 -179.997 168.632 11.8901 0 0
 70.0842 47.9003 -107.276 51.7695 -103.817 44.0087 180 179.995 -178.951 158.671 179.989 -178.251 157.852 179.968 -178.251 163.328 179.995 -178.951 178.613 -179.992 -179.65 15.8112 15.5038 8.56651 4.94812 8.66455 3.56372 1.44953 -27.5987 3.14965 29.1865 -48.7587 26.4012 177.833 -174.154 178.142 -0 -40.1835 33.2642 0.783777 28.7172 -1.70213 3.18642 50.139 -10.8175 165.222 169.114 -175.505 -0 -11.6519 -30.5813 82.8565 -10.7673 -34.1909 102.122 178.988 -179.782 161.827 179.952 -168.499 15.9535 0 0 81.1275 24.8917 45.3213 89.6307 -168.732 -179.783 163.833 -179.996 168.624 11.8899 0 0
 70.5398 47.097 -107.027 50.0804 -103.634 42.2059 180 179.987 -178.876 158.26 179.974 -178.127 157.339 179.922 -178.127 162.748 179.987 -178.876 179.191 -179.995 -179.626 17.9484 16.0531 7.8897 5.57371 9.19715 3.45299 1.26138 -26.9236 2.74048 30.9513 -47.8158 27.275 177.551 -174.265 178.102 -0 -38.6625 32.3373 0.425252 28.6069 -0.923486 4.00482 50.6821 -11.4497 164.937 169.728 -175.623 -0 -10.8691 -27.4372 83.307 -10.7805 -35.2315 100.824 179.039 -179.656 162.132 -179.978 -168.49 15.9485 0 0 81.4535 26.0594 45.1347 86.891 -168.77 -179.909 164.396 -179.982 168.535 11.8901 0 0
 70.8884 46.5174 -106.749 47.9538 -103.333 40.1226 180 179.992 -178.838 157.897 179.984 -178.063 156.897 179.953 -178.063 162.268 179.992 -178.838 179.625 -179.997 -179.613 19.5908 16.3148 7.42938 6.05658 9.29531 3.37755 0.816027 -26.6367 1.77249 32.2175 -47.4817 28.4164 177.08 -174.31 178.024 -0 -37.1235 32.032 179.888 151.397 -179.756 4.51826 51.2054 -11.8276 164.811 169.639 -175.562 -0 -9.86591 -24.498 83.5563 -10.7448 -36.1069 99.8287 179.058 -179.597 162.213 -179.97 -168.493 15.9438 0 0 81.3125 26.7504 45.4832 84.5846 -168.811 179.891 164.378 -179.991 168.53 11.9027 0 0
 70.9703 46.1796 -106.859 45.4837 -103.027 37.8093 180 179.991 -178.823 157.57 179.982 -178.039 156.54 179.947 -178.039 161.961 179.991 -178.823 179.724 -179.998 -179.608 20.2431 16.3549 7.08411 6.24092 9.51714 3.29207 179.683 -153.585 179.312 33.0691 -47.906 29.3453 176.538 -174.235 177.942 -0 -35.6138 32.2336 179.06 151.938 -177.959 4.69698 51.2027 -12.0088 164.884 168.988 -175.383 -0 -8.73504 -21.8585 83.919 -10.8761 -35.9809 99.1022 179.495 -179.616 162.065 179.976 -168.512 15.9304 0 0 81.4372 26.8965 45.4782 83.5709 -168.893 179.807 164.173 -179.984 168.53 11.9135 0 0
 70.8664 46.0516 -106.715 44.0384 -101.846 36.4667 179.999 179.976 -178.776 157.338 179.952 -177.96 156.274 179.857 -177.96 161.71 179.976 -178.776 179.872 -179.999 -179.592 21.1226 17.2344 6.23002 6.47714 11.5123 3.09442 178.376 -153.663 176.471 34.0165 -48.9792 30.3499 175.845 -174.488 177.948 -0 -34.0851 32.7795 178.143 152.788 -175.964 4.43923 50.8198 -12.166 165.168 168.115 -175.299 -0 -7.53971 -19.9617 83.7849 -10.6422 -35.9711 99.0336 -179.553 -179.602 160.923 179.956 -168.53 15.9175 0 0 81.3757 26.8141 45.515 82.8585 -168.953 179.847 163.961 -179.975 168.546 11.9223 0 0
 70.7478 45.9394 -106.512 41.7416 -100.882 34.1355 180 179.981 -178.734 157.131 179.961 -177.891 156.033 179.883 -177.891 161.471 179.981 -178.734 0.0384939 0.000283451 0.421892 22.133 17.9054 4.95455 6.74497 13.8561 2.74089 177.322 -153.803 174.176 34.5107 -49.8351 31.1016 174.988 -174.505 177.754 -0 -32.5325 33.5749 177.205 153.454 -173.92 4.2061 50.6823 -12.4827 165.62 166.908 -174.938 -0 -6.35807 -18.6112 83.2183 -10.1193 -35.8928 99.4459 -178.737 -179.883 160.937 179.92 -168.528 15.9244 0 0 81.4126 26.8079 45.5738 82.3424 -168.968 179.864 163.796 -179.984 168.553 11.9296 0 0
 71.0924 46.1949 -106.362 39.8439 -100.297 32.2501 179.999 179.977 -178.733 156.982 179.954 -177.889 155.83 179.861 -177.889 161.209 179.977 -178.733 0.368842 0.0027185 0.422277 23.5993 18.6094 3.51907 7.15996 16.2456 2.33119 176.673 -153.465 172.76 35.3965 -50.8818 32.3629 174.188 -174.421 177.537 -0 -31.0003 34.2221 176.54 154.138 -172.47 4.04275 50.5425 -13.0429 166.104 165.558 -174.608 -0 -5.225 -17.4426 82.4643 -9.47991 -36.2532 99.9483 -178.033 -179.988 161.031 179.927 -168.511 15.9303 0 0 81.1014 26.4066 46.1122 81.7197 -168.983 179.926 163.364 -179.996 168.554 11.9362 0 0
 71.4523 46.4812 -106.059 37.7592 -99.5057 30.3904 180 179.981 -178.726 156.872 179.962 -177.877 155.658 179.886 -177.877 160.949 179.981 -178.726 0.76772 0.00569034 0.424643 25.1588 19.1511 2.33149 7.61908 17.9783 1.98117 176.038 -153.363 171.37 35.4499 -51.3091 32.4329 173.232 -174.455 177.52 -0 -29.1785 34.8132 176.109 155.125 -171.53 4.15802 50.3697 -13.3468 166.695 163.941 -174.413 -0 -4.07816 -16.5172 81.7022 -8.97323 -36.6763 100.44 -177.445 -179.981 161.067 179.941 -168.508 15.9355 0 0 80.4574 25.7855 46.8557 81.174 -169.002 -179.984 162.672 179.993 168.559 11.9418 0 0
 71.9873 47.5669 -105.854 34.4171 -99.0076 27.437 180 179.995 -178.714 156.892 179.991 -177.857 155.602 179.973 -177.857 160.725 179.995 -178.714 1.32602 0.00991959 0.428531 26.93 19.2872 1.41881 8.14779 18.6542 1.69954 175.71 -153.195 170.65 35.9445 -51.8026 33.1904 172.479 -174.49 177.51 -0 -27.4778 35.1115 176.025 156.146 -171.355 4.68721 50.6108 -14.2011 167.298 162.161 -174.167 -0 -2.99506 -15.8083 79.9877 -8.08984 -37.1037 101.447 -177.159 -179.988 161.8 179.938 -168.513 15.9664 0 0 79.244 24.2133 47.935 81.6899 -169.034 179.898 161.456 179.955 168.557 11.9453 0 0
 72.3048 48.6908 -105.881 31.4812 -98.8779 24.5177 180 179.993 -178.708 156.921 179.987 -177.846 155.595 179.96 -177.846 160.638 179.993 -178.708 1.58493 0.0119137 0.430569 27.7385 19.4711 1.04656 8.39146 19.031 1.59158 175.438 -153.056 170.051 37.2889 -52.6971 34.1733 171.94 -174.295 177.39 -0 -25.9672 35.0542 176.108 157.061 -171.546 5.43641 50.4039 -14.7845 167.791 160.657 -174.017 -0 -1.95519 -14.9437 78.3017 -7.09185 -37.1853 102.496 -177.025 -179.963 162.398 179.928 -168.507 16.0074 0 0 78.3061 22.9216 48.2194 83.0704 -168.823 179.912 160.822 -179.989 168.54 11.948 0 0
 72.6021 49.8675 -106.061 27.4945 -98.7383 20.4347 180 179.991 -178.71 156.965 179.981 -177.85 155.609 179.943 -177.85 160.581 179.991 -178.71 1.80103 0.0135153 0.42981 28.3578 19.4319 0.781189 8.57681 19.0849 1.50587 175.245 -153.879 169.629 38.3051 -53.0093 34.0272 171.611 -173.914 177.269 -0 -24.5879 34.5218 176.398 158.029 -172.191 6.50829 49.9311 -15.0913 168.167 159.25 -173.902 -0 -0.969823 -13.9413 76.7355 -5.98531 -37.1928 103.349 -176.895 -179.881 162.214 179.946 -168.51 16.0422 0 0 77.3704 21.6889 48.3168 84.4502 -168.657 -179.843 160 -179.98 168.578 11.9501 0 0
